<svg xmlns="http://www.w3.org/2000/svg" width="154.16" height="31.76" viewBox="0 0 154.16 31.76">
  <path id="パス_13" data-name="パス 13" d="M-67.16-31.2-77.32,0h3.24l2.56-8.48h8.76L-60.2,0h3.24Zm0,8.56L-63.48-11H-70.8ZM-33.04,0a7.69,7.69,0,0,0,8.08-7.84c0-3.72-1.76-5.88-5.04-7.48a6.894,6.894,0,0,0,3.8-6.2c0-6.88-5.72-7.28-9.04-7.28h-6.04V0Zm-5.24-26.28h3.24c1.84,0,5.84-.12,5.84,4.64a5.459,5.459,0,0,1-5.6,5.4h-3.48Zm0,23.76v-11.2h3.76c4.56,0,6.56,2.84,6.56,6.04,0,3.6-2.64,5.16-5.28,5.16ZM-8.84-14.4C-8.84-10.32-8.88.56,0,.56,9.12.56,8.84-10.56,8.84-14.4c0-5.36-.44-14.96-8.84-14.96C-4.84-29.36-8.84-26.44-8.84-14.4ZM0-1.96c-6,0-5.84-9.16-5.84-12.44,0-1.68-.56-12.44,5.84-12.44,6.24,0,5.84,9.8,5.84,12.44C5.84-3.96,3-1.96,0-1.96ZM38.56-28.8V-7.92c0,3.24-1.28,5.96-4.96,5.96-2.32,0-5-1.44-5-5.6V-28.8h-3V-9.16c0,7.96,4.88,9.72,8,9.72a7.758,7.758,0,0,0,7.96-8.12V-28.8Zm38.28,0H57.6v2.52h8.04V0h3V-26.28h8.2Z" transform="translate(77.32 31.2)" fill="#2d334a"/>
</svg>
