<svg xmlns="http://www.w3.org/2000/svg" width="75" height="100" viewBox="0 0 75 100">
  <path id="file-code-solid" d="M75,23.816V25H50V0h1.184A4.688,4.688,0,0,1,54.5,1.372L73.628,20.5A4.688,4.688,0,0,1,75,23.816ZM48.438,31.25a4.7,4.7,0,0,1-4.688-4.688V0H4.688A4.688,4.688,0,0,0,0,4.688V95.312A4.688,4.688,0,0,0,4.688,100H70.312A4.688,4.688,0,0,0,75,95.312V31.25ZM24.064,78.224a1.054,1.054,0,0,1-1.49.048L9.9,66.4a1.054,1.054,0,0,1,0-1.538l12.67-11.878a1.054,1.054,0,0,1,1.49.048l3.824,4.08a1.054,1.054,0,0,1-.072,1.514l-7.962,7,7.962,7a1.054,1.054,0,0,1,.072,1.514l-3.824,4.078Zm10.018,9.86L28.72,86.528A1.056,1.056,0,0,1,28,85.22L40,43.886a1.056,1.056,0,0,1,1.308-.718l5.362,1.556a1.054,1.054,0,0,1,.718,1.308l-12,41.334a1.054,1.054,0,0,1-1.306.718ZM65.486,66.4,52.816,78.278a1.054,1.054,0,0,1-1.49-.048L47.5,74.15a1.054,1.054,0,0,1,.072-1.514l7.962-7-7.962-7a1.054,1.054,0,0,1-.072-1.514l3.824-4.08a1.054,1.054,0,0,1,1.49-.048l12.67,11.878a1.054,1.054,0,0,1,0,1.538Z" fill="#2d334a"/>
</svg>
