<svg xmlns="http://www.w3.org/2000/svg" width="219.72" height="31.76" viewBox="0 0 219.72 31.76">
  <path id="パス_16" data-name="パス 16" d="M-92.6-22.56a7.02,7.02,0,0,0-7.24-6.8c-8.12,0-9.44,8.8-9.44,15.12,0,6.12,1.16,14.8,9.08,14.8,4.8,0,7.64-2.92,7.96-7.6h-3c-.04,2.84-1.84,5.08-4.84,5.08-5.76,0-6.2-8-6.2-12.2,0-4.44.4-12.68,6.48-12.68a4.168,4.168,0,0,1,4.2,4.28Zm16.56,8.16c0,4.08-.04,14.96,8.84,14.96,9.12,0,8.84-11.12,8.84-14.96,0-5.36-.44-14.96-8.84-14.96C-72.04-29.36-76.04-26.44-76.04-14.4ZM-67.2-1.96c-6,0-5.84-9.16-5.84-12.44,0-1.68-.56-12.44,5.84-12.44,6.24,0,5.84,9.8,5.84,12.44C-61.36-3.96-64.2-1.96-67.2-1.96ZM-41,0h3V-22.88l.08-.08L-28.48.28h2.84V-28.8h-3V-7.28h-.12L-37.52-28.8H-41ZM9.64-28.8H-9.6v2.52h8.04V0h3V-26.28h8.2Zm24-2.4L23.48,0h3.24l2.56-8.48h8.76L40.6,0h3.24Zm0,8.56L37.32-11H30Zm41.76.08a7.02,7.02,0,0,0-7.24-6.8c-8.12,0-9.44,8.8-9.44,15.12,0,6.12,1.16,14.8,9.08,14.8,4.8,0,7.64-2.92,7.96-7.6h-3c-.04,2.84-1.84,5.08-4.84,5.08-5.76,0-6.2-8-6.2-12.2,0-4.44.4-12.68,6.48-12.68a4.168,4.168,0,0,1,4.2,4.28Zm35.04-6.24H91.2v2.52h8.04V0h3V-26.28h8.2Z" transform="translate(109.28 31.2)" fill="#fffffe"/>
</svg>
