<svg xmlns="http://www.w3.org/2000/svg" width="120.359" height="100" viewBox="0 0 120.359 100">
  <g id="device" transform="translate(-1359 -3721)">
    <path id="前面オブジェクトで型抜き_2" data-name="前面オブジェクトで型抜き 2" d="M81.192,100h-51.9l1.8-4.922a1.529,1.529,0,0,1,1.432-1h9.027a.837.837,0,0,0,.838-.835v-8.7h25.7v8.208a1.336,1.336,0,0,0,1.337,1.332h9.595L81.192,100h0ZM79.3,78.67H3.619A3.615,3.615,0,0,1,0,75.067V3.6A3.615,3.615,0,0,1,3.619,0H106.867a3.615,3.615,0,0,1,3.619,3.6V34.691h-7.809V8.954H7.808v51.9H79.3V78.669Z" transform="translate(1359 3721)" fill="#fffffe"/>
    <g id="スマートフォンのアイコン素材" transform="translate(1443.946 3762.863)">
      <path id="パス_6" data-name="パス 6" d="M128.977,0H106.434A6.433,6.433,0,0,0,100,6.434V51.679a6.433,6.433,0,0,0,6.434,6.434h22.543a6.435,6.435,0,0,0,6.436-6.434V6.434A6.435,6.435,0,0,0,128.977,0Zm-11.27,54.933a1.664,1.664,0,1,1,1.665-1.665A1.666,1.666,0,0,1,117.706,54.933Zm12.258-6.808H105.448V7.264h24.517Z" transform="translate(-100)" fill="#fffffe"/>
    </g>
  </g>
</svg>
