<svg xmlns="http://www.w3.org/2000/svg" width="37.5" height="50" viewBox="0 0 37.5 50">
  <path id="file-code-solid" d="M37.5,11.908V12.5H25V0h.592a2.344,2.344,0,0,1,1.657.686l9.565,9.565A2.344,2.344,0,0,1,37.5,11.908ZM24.219,15.625a2.351,2.351,0,0,1-2.344-2.344V0H2.344A2.344,2.344,0,0,0,0,2.344V47.656A2.344,2.344,0,0,0,2.344,50H35.156A2.344,2.344,0,0,0,37.5,47.656V15.625ZM12.032,39.112a.527.527,0,0,1-.745.024L4.952,33.2a.527.527,0,0,1,0-.769l6.335-5.939a.527.527,0,0,1,.745.024l1.912,2.04a.527.527,0,0,1-.036.757l-3.981,3.5,3.981,3.5a.527.527,0,0,1,.036.757l-1.912,2.039Zm5.009,4.93-2.681-.778A.528.528,0,0,1,14,42.61l6-20.667a.528.528,0,0,1,.654-.359l2.681.778a.527.527,0,0,1,.359.654l-6,20.667a.527.527,0,0,1-.653.359ZM32.743,33.2l-6.335,5.939a.527.527,0,0,1-.745-.024l-1.912-2.04a.527.527,0,0,1,.036-.757l3.981-3.5-3.981-3.5a.527.527,0,0,1-.036-.757l1.912-2.04a.527.527,0,0,1,.745-.024l6.335,5.939a.527.527,0,0,1,0,.769Z" fill="#706a67"/>
</svg>
