<svg xmlns="http://www.w3.org/2000/svg" width="50" height="50" viewBox="0 0 50 50">
  <path id="js-brands" d="M0,32V82H50V32ZM27.21,71c0,4.866-2.857,7.087-7.02,7.087a7.3,7.3,0,0,1-7.054-4.3l3.828-2.31c.737,1.306,1.406,2.411,3.025,2.411,1.54,0,2.522-.6,2.522-2.958V54.958h4.7V71Zm11.116,7.087c-4.364,0-7.188-2.076-8.56-4.8l3.828-2.21a5.127,5.127,0,0,0,4.632,2.857c1.942,0,3.192-.971,3.192-2.321,0-1.607-1.272-2.176-3.426-3.125l-1.172-.5c-3.393-1.44-5.636-3.259-5.636-7.087,0-3.527,2.69-6.205,6.875-6.205a6.92,6.92,0,0,1,6.674,3.761l-3.661,2.344a3.2,3.2,0,0,0-3.025-2.009A2.039,2.039,0,0,0,35.8,60.795c0,1.406.871,1.975,2.891,2.857l1.172.5c4,1.708,6.239,3.46,6.239,7.388,0,4.219-3.326,6.54-7.779,6.54Z" transform="translate(0 -32)" fill="#706a67"/>
</svg>
