<svg xmlns="http://www.w3.org/2000/svg" width="85" height="85" viewBox="0 0 85 85">
  <path id="js-brands" d="M0,32v85H85V32ZM46.257,98.3c0,8.272-4.857,12.048-11.934,12.048a12.41,12.41,0,0,1-11.992-7.31l6.508-3.927c1.253,2.22,2.39,4.1,5.142,4.1,2.618,0,4.287-1.02,4.287-5.029V71.029h7.99V98.3Zm18.9,12.048c-7.419,0-12.22-3.529-14.552-8.16l6.508-3.757a8.716,8.716,0,0,0,7.874,4.857c3.3,0,5.426-1.651,5.426-3.946,0-2.732-2.162-3.7-5.824-5.312l-1.992-.85c-5.768-2.448-9.581-5.54-9.581-12.048,0-6,4.573-10.549,11.688-10.549a11.764,11.764,0,0,1,11.346,6.394l-6.224,3.985a5.44,5.44,0,0,0-5.143-3.415,3.466,3.466,0,0,0-3.82,3.405c0,2.39,1.481,3.357,4.915,4.857l1.992.85c6.8,2.9,10.606,5.882,10.606,12.56,0,7.172-5.654,11.118-13.224,11.118Z" transform="translate(0 -32)" fill="#2d334a"/>
</svg>
