<svg xmlns="http://www.w3.org/2000/svg" width="302.074" height="31.055" viewBox="0 0 302.074 31.055">
  <defs>
    <style>
      .cls-1 {
        fill: #fff;
      }
    </style>
  </defs>
  <path id="パス_1" data-name="パス 1" class="cls-1" d="M2.461,5.723a1.537,1.537,0,0,0,1.1-.527,1.581,1.581,0,0,0,.518-1.113,1.549,1.549,0,0,0-.508-1.113,1.549,1.549,0,0,0-1.113-.508,1.583,1.583,0,0,0-1.133.5A1.537,1.537,0,0,0,.82,4.082a1.569,1.569,0,0,0,.508,1.133A1.569,1.569,0,0,0,2.461,5.723Zm.352-4.1A2.155,2.155,0,0,1,4.9,4.082q0,2.07-2.441,2.461A2.175,2.175,0,0,1,0,4.082Q0,1.914,1.895,1.66V-2.949q0-4.355.078-9.473H12.266q8.2,0,10.391-1.5a2.783,2.783,0,0,0,1.23-2.422q0-.352-.02-.645Q23.5-20.527,20.8-21.367a12.179,12.179,0,0,0-2.793-.508q-3.516-.176-5.742-.176H4.9a2.158,2.158,0,0,1-2.441,2.441A2.167,2.167,0,0,1,0-22.051a2.175,2.175,0,0,1,2.461-2.461q2.012,0,2.344,1.621h7.461a52.139,52.139,0,0,1,5.723.215q3.789.469,5.215,1.953a5.341,5.341,0,0,1,1.309,3.73v.273a4.806,4.806,0,0,1-.488,2.246q-1.016,1.953-5.43,2.52a49.914,49.914,0,0,1-6.328.352H2.773Zm1.27-23.848a1.762,1.762,0,0,0-.576-1.025,1.516,1.516,0,0,0-1.045-.439,1.569,1.569,0,0,0-1.133.508A1.569,1.569,0,0,0,.82-22.051a1.537,1.537,0,0,0,.508,1.123,1.583,1.583,0,0,0,1.133.5,1.444,1.444,0,0,0,1.133-.586A1.877,1.877,0,0,0,4.082-22.227Zm44.4-2.285a15.494,15.494,0,0,1,4.18.82,10.973,10.973,0,0,1,6.875,5.82,12.533,12.533,0,0,1,1.211,5.605,14.5,14.5,0,0,1-.781,4.512,10.512,10.512,0,0,1-4.355,5.879A12.893,12.893,0,0,1,48.484,0a12.684,12.684,0,0,1-6.152-1.484A11.039,11.039,0,0,1,37.84-5.937a12.706,12.706,0,0,1-1.543-6.25v-.078a11.983,11.983,0,0,1,3.652-8.984,11.989,11.989,0,0,1,3.965-2.461,11.555,11.555,0,0,1,4.2-.8Zm.156,1.25a12.724,12.724,0,0,0-8.047,3.184,9.58,9.58,0,0,0-3.125,7.422v.488a12.186,12.186,0,0,0,1.582,5.586,10.95,10.95,0,0,0,4,4.18A9.941,9.941,0,0,0,48.191-.918h.391a11.144,11.144,0,0,0,5.625-1.66q4.609-2.852,5.1-9.844Q58.445-22.5,48.641-23.262ZM48.484-9.8a2.175,2.175,0,0,1-2.461-2.461,2.167,2.167,0,0,1,2.461-2.441,2.167,2.167,0,0,1,2.461,2.441Q50.945-10.176,48.484-9.8Zm0-.82a1.549,1.549,0,0,0,1.1-.518,1.568,1.568,0,0,0,.518-1.123,1.549,1.549,0,0,0-.508-1.113,1.549,1.549,0,0,0-1.113-.508,1.549,1.549,0,0,0-1.113.508,1.549,1.549,0,0,0-.508,1.113,1.581,1.581,0,0,0,.508,1.123A1.536,1.536,0,0,0,48.484-10.625ZM77.164,5.723a1.537,1.537,0,0,0,1.1-.527,1.581,1.581,0,0,0,.518-1.113,1.549,1.549,0,0,0-.508-1.113,1.549,1.549,0,0,0-1.113-.508,1.583,1.583,0,0,0-1.133.5,1.537,1.537,0,0,0-.508,1.123,1.569,1.569,0,0,0,.508,1.133A1.569,1.569,0,0,0,77.164,5.723ZM96.754-.82a1.569,1.569,0,0,0,1.133-.508,1.569,1.569,0,0,0,.508-1.133,1.537,1.537,0,0,0-.508-1.123,1.583,1.583,0,0,0-1.133-.5,1.549,1.549,0,0,0-1.113.508,1.549,1.549,0,0,0-.508,1.113,1.583,1.583,0,0,0,.5,1.133A1.537,1.537,0,0,0,96.754-.82ZM95.133-4.492a2.906,2.906,0,0,1,1.621-.41,2.167,2.167,0,0,1,2.461,2.441q0,2.148-2.461,2.461a2.167,2.167,0,0,1-2.441-2.461,2.872,2.872,0,0,1,.293-1.367L86.969-11.6H77.477l.039,13.223a2.155,2.155,0,0,1,2.09,2.461q0,2.07-2.441,2.461A2.175,2.175,0,0,1,74.7,4.082q0-2.168,1.895-2.422V-2.949q0-4.355.078-9.473H86.969q8.2,0,10.391-1.5a2.783,2.783,0,0,0,1.23-2.422q0-.352-.02-.645Q98.2-20.527,95.5-21.367a12.179,12.179,0,0,0-2.793-.508q-3.516-.176-5.742-.176H79.605a2.158,2.158,0,0,1-2.441,2.441A2.167,2.167,0,0,1,74.7-22.051a2.175,2.175,0,0,1,2.461-2.461q2.012,0,2.344,1.621h7.461a52.139,52.139,0,0,1,5.723.215q3.789.469,5.215,1.953a5.341,5.341,0,0,1,1.309,3.73v.293a4.882,4.882,0,0,1-.449,2.168q-.918,1.914-5.039,2.52a52.127,52.127,0,0,1-5.762.41ZM78.785-22.227a1.762,1.762,0,0,0-.576-1.025,1.516,1.516,0,0,0-1.045-.439,1.569,1.569,0,0,0-1.133.508,1.569,1.569,0,0,0-.508,1.133,1.537,1.537,0,0,0,.508,1.123,1.583,1.583,0,0,0,1.133.5Q78.785-20.43,78.785-22.227ZM124.75,2.52a1.67,1.67,0,0,0-1.172.449,1.452,1.452,0,0,0-.488,1.113,1.568,1.568,0,0,0,.518,1.123,1.568,1.568,0,0,0,1.123.518,1.536,1.536,0,0,0,1.113-.518,1.581,1.581,0,0,0,.508-1.123,1.471,1.471,0,0,0-.488-1.094A1.564,1.564,0,0,0,124.75,2.52Zm9.766-22.949A2.176,2.176,0,0,0,135.639-21a1.4,1.4,0,0,0,.518-1.055,1.569,1.569,0,0,0-.508-1.133,1.569,1.569,0,0,0-1.133-.508,1.537,1.537,0,0,0-1.123.508,1.583,1.583,0,0,0-.5,1.133,1.549,1.549,0,0,0,.508,1.113A1.549,1.549,0,0,0,134.516-20.43Zm-19.434,0a1.8,1.8,0,0,0,1.016-.576,1.5,1.5,0,0,0,.449-1.045,1.583,1.583,0,0,0-.5-1.133,1.537,1.537,0,0,0-1.123-.508,1.569,1.569,0,0,0-1.133.508,1.569,1.569,0,0,0-.508,1.133,1.461,1.461,0,0,0,.547,1.152A1.866,1.866,0,0,0,115.082-20.43ZM132.23-23.2a2.426,2.426,0,0,1,2.285-1.309,2.175,2.175,0,0,1,2.461,2.461,2.385,2.385,0,0,1-.7,1.758,2.307,2.307,0,0,1-1.7.684h-.059a2.331,2.331,0,0,1-1.855-.918,3.186,3.186,0,0,1-.645-2.031h-6.8V1.836a2.134,2.134,0,0,1,1.367.771,2.2,2.2,0,0,1,.586,1.475,2.451,2.451,0,1,1-4.9,0q.293-2.109,2.129-2.246V-22.559h-7.031a3.585,3.585,0,0,1-.527,2.012,1.994,1.994,0,0,1-1.758.938q-2.617,0-2.617-2.441a2.175,2.175,0,0,1,2.461-2.461,2.619,2.619,0,0,1,1.738.664,2.721,2.721,0,0,1,.547.645Zm36.746,1.152a1.549,1.549,0,0,0,.508,1.113,1.549,1.549,0,0,0,1.113.508,1.583,1.583,0,0,0,1.133-.5,1.537,1.537,0,0,0,.508-1.123,1.569,1.569,0,0,0-.508-1.133,1.569,1.569,0,0,0-1.133-.508,1.537,1.537,0,0,0-1.123.508A1.583,1.583,0,0,0,168.977-22.051ZM149.367,4.082a1.569,1.569,0,0,0,.508,1.133,1.569,1.569,0,0,0,1.133.508,1.536,1.536,0,0,0,1.113-.518,1.581,1.581,0,0,0,.508-1.123,1.549,1.549,0,0,0-.508-1.113,1.549,1.549,0,0,0-1.113-.508,1.52,1.52,0,0,0-1.064.449,1.8,1.8,0,0,0-.576,1.016Zm19.609-16.348a1.581,1.581,0,0,0,.508,1.123,1.536,1.536,0,0,0,1.113.518,1.569,1.569,0,0,0,1.133-.508,1.569,1.569,0,0,0,.508-1.133,1.549,1.549,0,0,0-.508-1.113,1.569,1.569,0,0,0-1.133-.508,1.5,1.5,0,0,0-1.045.449,1.8,1.8,0,0,0-.576,1.016ZM151.32,1.621a2.168,2.168,0,0,1,2.129,2.461,2.451,2.451,0,1,1-4.9,0A2.163,2.163,0,0,1,150.52,1.66v-25.02h17.871a2.2,2.2,0,0,0,.986-.576,2.1,2.1,0,0,1,1.221-.576,2.175,2.175,0,0,1,2.461,2.461,2.167,2.167,0,0,1-2.461,2.441,2.158,2.158,0,0,1-2.441-2.441l.059-.176a1.336,1.336,0,0,0,.039-.254q-.02-.078-.059-.078H151.32v9.492h16.934q.332-1.641,2.344-1.641a2.167,2.167,0,0,1,2.461,2.441A2.175,2.175,0,0,1,170.6-9.8a2.167,2.167,0,0,1-2.441-2.461H151.32Zm46.3-26.133a15.493,15.493,0,0,1,4.18.82,10.973,10.973,0,0,1,6.875,5.82,12.533,12.533,0,0,1,1.211,5.605,14.5,14.5,0,0,1-.781,4.512,10.512,10.512,0,0,1-4.355,5.879A12.893,12.893,0,0,1,197.617,0a12.684,12.684,0,0,1-6.152-1.484,11.039,11.039,0,0,1-4.492-4.453,12.706,12.706,0,0,1-1.543-6.25v-.078a11.983,11.983,0,0,1,3.652-8.984,11.989,11.989,0,0,1,3.965-2.461,11.555,11.555,0,0,1,4.2-.8Zm.156,1.25a12.724,12.724,0,0,0-8.047,3.184,9.58,9.58,0,0,0-3.125,7.422v.488a12.186,12.186,0,0,0,1.582,5.586,10.95,10.95,0,0,0,4,4.18,9.941,9.941,0,0,0,5.137,1.484h.391a11.144,11.144,0,0,0,5.625-1.66q4.609-2.852,5.1-9.844Q207.578-22.5,197.773-23.262ZM197.617-9.8a2.175,2.175,0,0,1-2.461-2.461,2.167,2.167,0,0,1,2.461-2.441,2.167,2.167,0,0,1,2.461,2.441Q200.078-10.176,197.617-9.8Zm0-.82a1.549,1.549,0,0,0,1.1-.518,1.568,1.568,0,0,0,.518-1.123,1.549,1.549,0,0,0-.508-1.113,1.549,1.549,0,0,0-1.113-.508,1.549,1.549,0,0,0-1.113.508A1.549,1.549,0,0,0,196-12.266a1.581,1.581,0,0,0,.508,1.123A1.536,1.536,0,0,0,197.617-10.625Zm28.68-9.8a1.549,1.549,0,0,0,1.113-.508,1.549,1.549,0,0,0,.508-1.113,1.583,1.583,0,0,0-.5-1.133,1.537,1.537,0,0,0-1.123-.508,1.569,1.569,0,0,0-1.133.508,1.569,1.569,0,0,0-.508,1.133,1.537,1.537,0,0,0,.508,1.123A1.583,1.583,0,0,0,226.3-20.43ZM245.867-.742a1.494,1.494,0,0,0,1.66-1.719,1.537,1.537,0,0,0-.508-1.123,1.583,1.583,0,0,0-1.133-.5,1.549,1.549,0,0,0-1.113.508,1.549,1.549,0,0,0-.508,1.113A1.678,1.678,0,0,0,245.867-.742Zm-2.285-.879a3.192,3.192,0,0,1-.137-.84A2.158,2.158,0,0,1,245.887-4.9a2.167,2.167,0,0,1,2.461,2.441A2.141,2.141,0,0,1,245.965,0h-.078a2.266,2.266,0,0,1-1.621-.664H224.988v-19.18a1.722,1.722,0,0,0-.527-.957,2.015,2.015,0,0,1-.625-1.25,2.175,2.175,0,0,1,2.461-2.461,2.167,2.167,0,0,1,2.441,2.461,2.158,2.158,0,0,1-2.441,2.441l-.156-.059a1.354,1.354,0,0,0-.273-.039q-.059.02-.059.059V-1.621ZM262.4-4.082a2.284,2.284,0,0,0-1.211.488,1.407,1.407,0,0,0-.586,1.133,1.569,1.569,0,0,0,.508,1.133,1.569,1.569,0,0,0,1.133.508,1.537,1.537,0,0,0,1.123-.508,1.583,1.583,0,0,0,.5-1.133,1.5,1.5,0,0,0-.449-1.045A1.8,1.8,0,0,0,262.4-4.082Zm0-.82a2.146,2.146,0,0,1,2.285,2.441A2.167,2.167,0,0,1,262.242,0a2.175,2.175,0,0,1-2.461-2.461,2.08,2.08,0,0,1,1.8-2.383v-14.8a2.121,2.121,0,0,1-1.8-2.4,2.175,2.175,0,0,1,2.461-2.461,2.167,2.167,0,0,1,2.441,2.461,2.146,2.146,0,0,1-2.285,2.441Zm-.332-15.527a1.893,1.893,0,0,0,1.27-.449,1.466,1.466,0,0,0,.527-1.172,1.583,1.583,0,0,0-.5-1.133,1.537,1.537,0,0,0-1.123-.508,1.569,1.569,0,0,0-1.133.508,1.569,1.569,0,0,0-.508,1.133,1.513,1.513,0,0,0,.449,1.035A1.779,1.779,0,0,0,262.066-20.43Zm27.742-4.082a15.494,15.494,0,0,1,4.18.82,10.973,10.973,0,0,1,6.875,5.82,12.533,12.533,0,0,1,1.211,5.605,14.5,14.5,0,0,1-.781,4.512,10.512,10.512,0,0,1-4.355,5.879A12.892,12.892,0,0,1,289.809,0a12.684,12.684,0,0,1-6.152-1.484,11.039,11.039,0,0,1-4.492-4.453,12.706,12.706,0,0,1-1.543-6.25v-.078a11.983,11.983,0,0,1,3.652-8.984,11.989,11.989,0,0,1,3.965-2.461,11.555,11.555,0,0,1,4.2-.8Zm.156,1.25a12.724,12.724,0,0,0-8.047,3.184,9.58,9.58,0,0,0-3.125,7.422v.488a12.186,12.186,0,0,0,1.582,5.586,10.95,10.95,0,0,0,4,4.18,9.941,9.941,0,0,0,5.137,1.484h.391a11.144,11.144,0,0,0,5.625-1.66q4.609-2.852,5.1-9.844Q299.77-22.5,289.965-23.262ZM289.809-9.8a2.175,2.175,0,0,1-2.461-2.461,2.167,2.167,0,0,1,2.461-2.441,2.167,2.167,0,0,1,2.461,2.441Q292.27-10.176,289.809-9.8Zm0-.82a1.549,1.549,0,0,0,1.1-.518,1.568,1.568,0,0,0,.518-1.123,1.549,1.549,0,0,0-.508-1.113,1.549,1.549,0,0,0-1.113-.508,1.549,1.549,0,0,0-1.113.508,1.549,1.549,0,0,0-.508,1.113,1.581,1.581,0,0,0,.508,1.123A1.536,1.536,0,0,0,289.809-10.625Z" transform="translate(0 24.512)"/>
</svg>
