<svg xmlns="http://www.w3.org/2000/svg" width="200" height="31.184" viewBox="0 0 200 31.184">
  <path id="パス_3" data-name="パス 3" d="M2.467-.292A1.552,1.552,0,0,0,3.582-.818,1.583,1.583,0,0,0,4.1-1.939,1.568,1.568,0,0,0,3.59-3.053a1.552,1.552,0,0,0-1.123-.518,1.579,1.579,0,0,0-1.139.51A1.558,1.558,0,0,0,.817-1.939,1.574,1.574,0,0,0,1.328-.8,1.579,1.579,0,0,0,2.467-.292ZM22.185-6.849a1.588,1.588,0,0,0,1.131-.51A1.563,1.563,0,0,0,23.835-8.5a1.538,1.538,0,0,0-.518-1.129,1.6,1.6,0,0,0-1.131-.5,1.588,1.588,0,0,0-1.131.51A1.547,1.547,0,0,0,20.535-8.5a1.574,1.574,0,0,0,.511,1.137A1.579,1.579,0,0,0,22.185-6.849Zm-1.65-3.686a2.9,2.9,0,0,1,1.65-.424A2.179,2.179,0,0,1,24.652-8.5q0,2.149-2.467,2.463A2.179,2.179,0,0,1,19.718-8.5a2.923,2.923,0,0,1,.3-1.38l-7.7-7.812H2.8L2.828-4.4A2.154,2.154,0,0,1,4.933-1.939Q4.933.147,2.467.539A2.185,2.185,0,0,1,0-1.939,2.12,2.12,0,0,1,1.917-4.371V-9q0-4.376.063-9.506H12.318q8.249,0,10.448-1.506a2.78,2.78,0,0,0,1.257-2.431q0-.345-.031-.659-.361-3.545-3.079-4.392a11.722,11.722,0,0,0-2.812-.486q-3.535-.2-5.782-.2H4.933a2.179,2.179,0,0,1-2.467,2.463A2.179,2.179,0,0,1,0-28.182a2.179,2.179,0,0,1,2.467-2.463q2.027,0,2.357,1.631h7.494a51.8,51.8,0,0,1,5.766.22q3.818.455,5.248,1.945a5.4,5.4,0,0,1,1.32,3.749v.251a4.961,4.961,0,0,1-.456,2.212q-.927,1.929-5.059,2.541a52.142,52.142,0,0,1-5.8.408ZM4.1-28.354a1.774,1.774,0,0,0-.573-1.027,1.521,1.521,0,0,0-1.061-.447,1.568,1.568,0,0,0-1.139.518,1.583,1.583,0,0,0-.511,1.129,1.574,1.574,0,0,0,.511,1.137,1.579,1.579,0,0,0,1.139.51Q4.1-26.535,4.1-28.354Zm47.88,4.612a1.243,1.243,0,0,0,.408.894,1.247,1.247,0,0,0,.9.408,1.274,1.274,0,0,0,.911-.4,1.234,1.234,0,0,0,.409-.9,1.259,1.259,0,0,0-.409-.91,1.263,1.263,0,0,0-.911-.408,1.238,1.238,0,0,0-.9.408A1.27,1.27,0,0,0,51.98-23.743Zm0,15.733a1.27,1.27,0,0,0,.4.91,1.238,1.238,0,0,0,.9.408A1.263,1.263,0,0,0,54.2-7.1a1.259,1.259,0,0,0,.409-.91,1.234,1.234,0,0,0-.409-.9,1.274,1.274,0,0,0-.911-.4,1.207,1.207,0,0,0-.841.361,1.444,1.444,0,0,0-.463.816Zm0-7.874a1.269,1.269,0,0,0,.408.9,1.237,1.237,0,0,0,.9.416,1.263,1.263,0,0,0,.911-.408,1.259,1.259,0,0,0,.409-.91,1.243,1.243,0,0,0-.409-.894,1.263,1.263,0,0,0-.911-.408,1.207,1.207,0,0,0-.841.361,1.444,1.444,0,0,0-.463.816Zm-15.775,0v7.216H51.4q.267-1.3,1.885-1.3a1.741,1.741,0,0,1,1.98,1.961,1.748,1.748,0,0,1-1.98,1.976A1.741,1.741,0,0,1,51.321-8.01H35.546V-24.794H51.509a1.767,1.767,0,0,1,1.775-.925,1.748,1.748,0,0,1,1.98,1.976,1.741,1.741,0,0,1-1.98,1.961,1.734,1.734,0,0,1-1.964-1.961,2,2,0,0,1,.031-.408H36.206v7.623H51.4q.267-1.318,1.885-1.318a1.741,1.741,0,0,1,1.98,1.961,1.748,1.748,0,0,1-1.98,1.976,1.741,1.741,0,0,1-1.964-1.976ZM69.065-8.01a1.243,1.243,0,0,0-.409-.894,1.247,1.247,0,0,0-.9-.408,1.274,1.274,0,0,0-.911.4,1.234,1.234,0,0,0-.409.9,1.259,1.259,0,0,0,.409.91,1.263,1.263,0,0,0,.911.408,1.238,1.238,0,0,0,.9-.408A1.27,1.27,0,0,0,69.065-8.01Zm15.775,0a1.234,1.234,0,0,0-.409-.9,1.274,1.274,0,0,0-.911-.4,1.247,1.247,0,0,0-.9.408,1.243,1.243,0,0,0-.409.894,1.27,1.27,0,0,0,.4.91,1.238,1.238,0,0,0,.9.408,1.263,1.263,0,0,0,.911-.408A1.259,1.259,0,0,0,84.84-8.01Zm-2.231-1.8-6.96-13.929L68.673-9.814a1.7,1.7,0,0,1,1.053,1.8,1.741,1.741,0,0,1-1.964,1.976,1.748,1.748,0,0,1-1.98-1.976,1.741,1.741,0,0,1,1.98-1.961l7.887-15.749L83.52-9.97A1.741,1.741,0,0,1,85.5-8.01a1.748,1.748,0,0,1-1.98,1.976A1.741,1.741,0,0,1,81.556-8.01,1.7,1.7,0,0,1,82.609-9.814Zm23.809-13.929h-5.923a1.734,1.734,0,0,1-1.964,1.961,1.741,1.741,0,0,1-1.98-1.961,1.748,1.748,0,0,1,1.98-1.976q1.618,0,1.885,1.3h6a11.359,11.359,0,0,1,6.253,1.569,7.761,7.761,0,0,1,3.6,6.965q0,4.376-2.828,6.51a11.438,11.438,0,0,1-7.023,1.9h-5.955a1.706,1.706,0,0,1-1.933,1.443,1.748,1.748,0,0,1-1.98-1.976,1.741,1.741,0,0,1,1.98-1.961,1.725,1.725,0,0,1,1.964,1.835h5.923a5.42,5.42,0,0,1,.6.031q5.091,0,7.542-3.623a7.243,7.243,0,0,0,1.194-4.172,6.977,6.977,0,0,0-2.875-5.914A10.473,10.473,0,0,0,106.418-23.743Zm0,9.835a1.748,1.748,0,0,1-1.98-1.976,1.741,1.741,0,0,1,1.98-1.961,1.734,1.734,0,0,1,1.964,1.961Q108.382-14.206,106.418-13.908Zm0-.659a1.247,1.247,0,0,0,.888-.416,1.258,1.258,0,0,0,.416-.9,1.243,1.243,0,0,0-.409-.894,1.247,1.247,0,0,0-.9-.408,1.273,1.273,0,0,0-.9.408,1.233,1.233,0,0,0-.416.894,1.258,1.258,0,0,0,.416.9A1.262,1.262,0,0,0,106.418-14.566Zm-6.583,6.7a1.44,1.44,0,0,0-.707-1.286,1.157,1.157,0,0,0-.6-.157,1.274,1.274,0,0,0-.911.4,1.234,1.234,0,0,0-.409.9,1.259,1.259,0,0,0,.409.91,1.263,1.263,0,0,0,.911.408,1.218,1.218,0,0,0,.833-.361A1.428,1.428,0,0,0,99.835-7.869Zm0-16.015a1.415,1.415,0,0,0-.463-.824,1.22,1.22,0,0,0-.841-.353,1.263,1.263,0,0,0-.911.408,1.259,1.259,0,0,0-.409.91,1.234,1.234,0,0,0,.409.9,1.274,1.274,0,0,0,.911.4,1.176,1.176,0,0,0,.927-.439A1.5,1.5,0,0,0,99.835-23.884ZM167.392-9.312a1.247,1.247,0,0,0-.9.408,1.243,1.243,0,0,0-.409.894,1.27,1.27,0,0,0,.4.91,1.238,1.238,0,0,0,.9.408A1.263,1.263,0,0,0,168.3-7.1a1.259,1.259,0,0,0,.409-.91,1.234,1.234,0,0,0-.409-.9A1.274,1.274,0,0,0,167.392-9.312ZM151.633-4.057a1.274,1.274,0,0,0-.911.4,1.234,1.234,0,0,0-.409.9,1.259,1.259,0,0,0,.409.91,1.263,1.263,0,0,0,.911.408,1.237,1.237,0,0,0,.9-.416,1.269,1.269,0,0,0,.409-.9,1.2,1.2,0,0,0-.361-.839,1.447,1.447,0,0,0-.817-.463Zm7.887-5.255a1.273,1.273,0,0,0-.9.408,1.233,1.233,0,0,0-.416.894,1.259,1.259,0,0,0,.409.91,1.263,1.263,0,0,0,.911.408,1.247,1.247,0,0,0,.9-.408,1.259,1.259,0,0,0,.408-.91,1.2,1.2,0,0,0-.361-.839,1.447,1.447,0,0,0-.817-.463Zm0-15.749h-7.227V-4.637q1.3.267,1.3,1.882a1.741,1.741,0,0,1-1.964,1.976,1.748,1.748,0,0,1-1.98-1.976,1.748,1.748,0,0,1,1.98-1.976V-25.719h16.811V-9.782a1.762,1.762,0,0,1,.927,1.773,1.748,1.748,0,0,1-1.98,1.976,1.741,1.741,0,0,1-1.964-1.976,1.734,1.734,0,0,1,1.964-1.961,2.011,2.011,0,0,1,.409.031V-25.06h-7.636V-9.892q1.32.267,1.32,1.882a1.741,1.741,0,0,1-1.964,1.976,1.748,1.748,0,0,1-1.98-1.976,1.741,1.741,0,0,1,1.98-1.961Zm37.2,1.318a1.243,1.243,0,0,0,.408.894,1.247,1.247,0,0,0,.9.408,1.274,1.274,0,0,0,.911-.4,1.234,1.234,0,0,0,.409-.9,1.259,1.259,0,0,0-.409-.91,1.263,1.263,0,0,0-.911-.408,1.238,1.238,0,0,0-.9.408A1.27,1.27,0,0,0,196.716-23.743Zm0,15.733a1.27,1.27,0,0,0,.4.91,1.238,1.238,0,0,0,.9.408,1.263,1.263,0,0,0,.911-.408,1.259,1.259,0,0,0,.409-.91,1.234,1.234,0,0,0-.409-.9,1.274,1.274,0,0,0-.911-.4,1.207,1.207,0,0,0-.841.361,1.444,1.444,0,0,0-.463.816Zm0-7.874a1.269,1.269,0,0,0,.408.9,1.237,1.237,0,0,0,.9.416,1.263,1.263,0,0,0,.911-.408,1.259,1.259,0,0,0,.409-.91,1.243,1.243,0,0,0-.409-.894,1.263,1.263,0,0,0-.911-.408,1.207,1.207,0,0,0-.841.361,1.444,1.444,0,0,0-.463.816Zm-15.775,0v7.216h15.193q.267-1.3,1.885-1.3A1.741,1.741,0,0,1,200-8.01a1.748,1.748,0,0,1-1.98,1.976,1.741,1.741,0,0,1-1.964-1.976H180.282V-24.794h15.963a1.767,1.767,0,0,1,1.775-.925A1.748,1.748,0,0,1,200-23.743a1.741,1.741,0,0,1-1.98,1.961,1.734,1.734,0,0,1-1.964-1.961,2,2,0,0,1,.031-.408H180.942v7.623h15.193q.267-1.318,1.885-1.318A1.741,1.741,0,0,1,200-15.884a1.748,1.748,0,0,1-1.98,1.976,1.741,1.741,0,0,1-1.964-1.976Z" transform="translate(0 30.645)" fill="#fff"/>
</svg>
