<svg id="WEBページのアイコン" xmlns="http://www.w3.org/2000/svg" width="100" height="100" viewBox="0 0 100 100">
  <path id="パス_2" data-name="パス 2" d="M90.625,0H9.375A9.375,9.375,0,0,0,0,9.375v81.25A9.375,9.375,0,0,0,9.375,100h81.25A9.375,9.375,0,0,0,100,90.625V9.375A9.375,9.375,0,0,0,90.625,0ZM86.848,6.836a3.711,3.711,0,1,1-3.711,3.711A3.711,3.711,0,0,1,86.848,6.836Zm-13.77,0a3.711,3.711,0,1,1-3.711,3.711A3.711,3.711,0,0,1,73.079,6.836Zm-13.77,0A3.711,3.711,0,1,1,55.6,10.547,3.711,3.711,0,0,1,59.309,6.836ZM92.188,90.625a1.565,1.565,0,0,1-1.562,1.563H9.375a1.565,1.565,0,0,1-1.563-1.562V20.313H92.188Z" transform="translate(0 0)" fill="#fffffe"/>
  <rect id="長方形_48" data-name="長方形 48" width="31" height="7" transform="translate(18.573 37.362)" fill="#fffffe"/>
  <rect id="長方形_49" data-name="長方形 49" width="65" height="6" transform="translate(18.176 68.837)" fill="#fffffe"/>
  <rect id="長方形_50" data-name="長方形 50" width="24" height="24" transform="translate(58.772 37.222)" fill="#fffffe"/>
  <path id="パス_3" data-name="パス 3" d="M122.4,278.349h3.762V272H96v6.349h26.4Z" transform="translate(-77.376 -218.931)" fill="#fffffe"/>
</svg>
