<svg xmlns="http://www.w3.org/2000/svg" width="31.712" height="11.968" viewBox="0 0 31.712 11.968">
  <path id="パス_17" data-name="パス 17" d="M-16.976-5.76c0,1.632-.016,5.984,3.536,5.984C-9.792.224-9.9-4.224-9.9-5.76c0-2.144-.176-5.984-3.536-5.984C-15.376-11.744-16.976-10.576-16.976-5.76ZM-13.44-.784c-2.4,0-2.336-3.664-2.336-4.976,0-.672-.224-4.976,2.336-4.976,2.5,0,2.336,3.92,2.336,4.976C-11.1-1.584-12.24-.784-13.44-.784Zm11.9-10.736h-1.2V0h1.2V-5.424h.1L2.96,0h1.6L-.416-5.808c.736-.464,1.52-1.1,3.04-3.648l.944-1.584-1.184-.624C1.264-8.544-.7-6.544-1.536-6.448Zm15.76,0H12.656L12.928-3.5H14ZM12.16-1.024a1.271,1.271,0,0,0,1.3,1.248,1.267,1.267,0,0,0,1.28-1.248,1.253,1.253,0,0,0-1.28-1.232A1.267,1.267,0,0,0,12.16-1.024Z" transform="translate(16.976 11.744)" fill="#272343"/>
</svg>
