<svg xmlns="http://www.w3.org/2000/svg" width="100" height="75.558" viewBox="0 0 100 75.558">
  <g id="コメントのフリーアイコン6" transform="translate(0 -62.572)">
    <path id="パス_1" data-name="パス 1" d="M68.888,62.572H31.112a31.112,31.112,0,1,0,0,62.225H60.833c4.445,0,5.834,2.064,5.834,3.754,0,2.5-1.3,4.843-4.443,7.084-1.947,1.387-.416,2.5,1.111,2.5C83.195,138.13,100,116.462,100,93.682A31.111,31.111,0,0,0,68.888,62.572ZM26.378,99.591a5.908,5.908,0,1,1,5.9-5.909A5.907,5.907,0,0,1,26.378,99.591Zm23.622,0a5.908,5.908,0,1,1,5.909-5.909A5.91,5.91,0,0,1,50,99.591Zm23.622,0a5.908,5.908,0,1,1,5.909-5.909A5.906,5.906,0,0,1,73.622,99.591Z" transform="translate(0 0)" fill="#2d334a"/>
  </g>
</svg>
