<svg xmlns="http://www.w3.org/2000/svg" width="26.904" height="100.5" viewBox="0 0 26.904 100.5">
  <g id="グループ_25" data-name="グループ 25" transform="translate(-633 -639)">
    <g id="グループ_20" data-name="グループ 20" transform="translate(72 98)">
      <circle id="楕円形_1" data-name="楕円形 1" cx="7.5" cy="7.5" r="7.5" transform="translate(561 541)" fill="#ffd803"/>
      <line id="線_2" data-name="線 2" y2="100" transform="translate(568.5 541.5)" fill="none" stroke="#ffd803" stroke-width="3"/>
    </g>
    <path id="パス_14" data-name="パス 14" d="M-23.232-5.808a3.427,3.427,0,0,0-2.076-.744,1.838,1.838,0,0,0-1.98,1.692c0,1.152,1.056,1.584,1.968,1.932.66.252,1.332.48,1.332,1.32A1,1,0,0,1-25.1-.624,3.205,3.205,0,0,1-27.192-1.7l-.492.72A4.106,4.106,0,0,0-25.044.132a1.875,1.875,0,0,0,1.956-1.776c0-1.272-1.056-1.692-2.064-2.064-.492-.18-1.236-.492-1.236-1.116A1.007,1.007,0,0,1-25.344-5.8a3.05,3.05,0,0,1,1.716.72ZM-13.08-1.68A2.38,2.38,0,0,1-14.772-.624c-.828,0-1.86-.6-1.86-2.6,0-1.9.924-2.568,1.836-2.568a1.785,1.785,0,0,1,1.584,1.188l.78-.516A2.769,2.769,0,0,0-14.8-6.552c-1.284,0-2.736.84-2.736,3.408C-17.532-.6-15.948.132-14.76.132a2.989,2.989,0,0,0,2.292-1.176Zm7.224-1c0-2.112,1.212-3.12,1.872-3.12.684,0,.612.912.636,1.392h.9c0-.972-.288-2.148-1.488-2.148A2.345,2.345,0,0,0-5.928-5.2l-.2-1.224h-.876a13.116,13.116,0,0,1,.252,2.736V0h.9ZM5.04.132C6.276.132,7.6-.72,7.6-3.2c0-1.044-.288-3.348-2.556-3.348C3.816-6.552,2.5-5.688,2.5-3.2,2.5-.612,3.924.132,5.04.132Zm0-.756C3.636-.624,3.4-2.1,3.4-3.2S3.636-5.8,5.04-5.8,6.7-4.308,6.7-3.2,6.444-.624,5.04-.624Zm9.7.624h.9V-8.9H12.912v.756h1.824Zm10.08,0h.9V-8.9H22.992v.756h1.824Z" transform="translate(651 698) rotate(90)" fill="#ffd803"/>
  </g>
</svg>
