<svg xmlns="http://www.w3.org/2000/svg" width="98.737" height="100" viewBox="0 0 98.737 100">
  <g id="歯車アイコン10" transform="translate(-3.233 0)">
    <path id="パス_7" data-name="パス 7" d="M232.951,199.967l-7.326-1.065a1.212,1.212,0,0,1-1.03-.749l-2.375-5.731a1.205,1.205,0,0,1,.2-1.257l4.383-5.888a2.059,2.059,0,0,0-.109-2.792l-3.468-3.467a2.053,2.053,0,0,0-2.79-.109l-5.89,4.381a1.214,1.214,0,0,1-1.257.2l-5.733-2.377a1.224,1.224,0,0,1-.751-1.03l-1.062-7.324a2.058,2.058,0,0,0-2.05-1.9h-4.905a2.055,2.055,0,0,0-2.05,1.9l-1.065,7.324a1.21,1.21,0,0,1-.747,1.03l-5.735,2.377a1.217,1.217,0,0,1-1.259-.2l-5.886-4.381a2.057,2.057,0,0,0-2.792.109l-3.467,3.467a2.06,2.06,0,0,0-.109,2.792l4.381,5.889a1.21,1.21,0,0,1,.2,1.255l-2.375,5.731a1.214,1.214,0,0,1-1.028.751l-7.329,1.064a2.058,2.058,0,0,0-1.9,2.052v4.9a2.055,2.055,0,0,0,1.9,2.05l7.329,1.064a1.217,1.217,0,0,1,1.028.751l2.375,5.731a1.215,1.215,0,0,1-.2,1.259l-4.381,5.89a2.059,2.059,0,0,0,.109,2.792l3.467,3.467a2.057,2.057,0,0,0,2.792.107l5.886-4.383a1.22,1.22,0,0,1,1.259-.2l5.735,2.373a1.223,1.223,0,0,1,.749,1.034l1.064,7.324a2.058,2.058,0,0,0,2.05,1.9h4.905a2.058,2.058,0,0,0,2.05-1.9l1.062-7.324a1.228,1.228,0,0,1,.751-1.034l5.735-2.373a1.216,1.216,0,0,1,1.257.2l5.888,4.383a2.055,2.055,0,0,0,2.79-.107l3.468-3.467a2.057,2.057,0,0,0,.109-2.792l-4.383-5.89a1.219,1.219,0,0,1-.2-1.259l2.375-5.731a1.22,1.22,0,0,1,1.03-.751l7.326-1.064a2.055,2.055,0,0,0,1.9-2.05v-4.9A2.059,2.059,0,0,0,232.951,199.967ZM209.3,212.53a11.4,11.4,0,1,1,3.337-8.061A11.33,11.33,0,0,1,209.3,212.53Z" transform="translate(-132.878 -138.082)" fill="#fffffe"/>
    <path id="パス_8" data-name="パス 8" d="M39.513,49.686a1.611,1.611,0,0,0,1.009-1.944L39.36,42.056a.965.965,0,0,1,.28-.962l3.6-3.275a.957.957,0,0,1,.979-.186l5.51,1.668a1.614,1.614,0,0,0,2.031-.821L53.393,35a1.606,1.606,0,0,0-.659-2.087l-4.8-3.18a.956.956,0,0,1-.48-.877L47.687,24a.96.96,0,0,1,.559-.826l5.125-2.734a1.609,1.609,0,0,0,.854-2.013l-1.3-3.62A1.615,1.615,0,0,0,50.978,13.8L45.29,14.954a.946.946,0,0,1-.96-.278l-3.274-3.6a.945.945,0,0,1-.188-.981l1.669-5.506a1.611,1.611,0,0,0-.823-2.031L38.237.925a1.613,1.613,0,0,0-2.09.661l-3.179,4.8a.958.958,0,0,1-.876.482l-4.859-.23a.961.961,0,0,1-.828-.561L23.675.95A1.613,1.613,0,0,0,21.659.1L18.041,1.4a1.607,1.607,0,0,0-1.007,1.943l1.16,5.689a.952.952,0,0,1-.279.958l-3.6,3.277a.962.962,0,0,1-.983.188l-5.506-1.67a1.614,1.614,0,0,0-2.031.823L4.161,16.083a1.612,1.612,0,0,0,.659,2.089l4.8,3.18a.947.947,0,0,1,.48.874l-.229,4.859a.949.949,0,0,1-.559.826L4.183,30.645a1.609,1.609,0,0,0-.854,2.013l1.3,3.62a1.614,1.614,0,0,0,1.943,1.011l5.691-1.164a.953.953,0,0,1,.958.281L16.5,40a.955.955,0,0,1,.188.983l-1.668,5.506a1.615,1.615,0,0,0,.823,2.031l3.477,1.635a1.614,1.614,0,0,0,2.09-.659l3.177-4.8a.954.954,0,0,1,.877-.478l4.859.229a.96.96,0,0,1,.83.561l2.729,5.121a1.615,1.615,0,0,0,2.016.858ZM31.8,33.95a8.936,8.936,0,1,1,5.06-4.6A8.89,8.89,0,0,1,31.8,33.95Z" fill="#fffffe"/>
  </g>
</svg>
