<svg xmlns="http://www.w3.org/2000/svg" width="152.72" height="29.92" viewBox="0 0 152.72 29.92">
  <path id="パス_10" data-name="パス 10" d="M-59.12-25.76a12.041,12.041,0,0,0-7.92-3.6c-4.32,0-7.76,2.6-7.76,7.12,0,3.6,2.48,5.56,5.32,7.24l2.6,1.56c5.08,3.04,5.24,3.84,5.24,6.16a5.329,5.329,0,0,1-5.48,5.32,7.737,7.737,0,0,1-6.4-4l-2.32,1.84c2.24,2.88,5,4.68,8.72,4.68,5.04,0,8.48-3.08,8.48-8.24,0-3.36-1.44-4.88-6.72-8.12l-2.28-1.4c-3.88-2.36-4.16-3.72-4.16-5.24a4.4,4.4,0,0,1,4.64-4.4c2.48,0,4.48,1.68,6.24,3.24Zm21.68-3.04h-3V0h3V-13.56h.24L-26.2,0h4L-34.64-14.52c1.84-1.16,3.8-2.76,7.6-9.12l2.36-3.96-2.96-1.56c-2.8,7.8-7.72,12.8-9.8,13.04Zm42.84,0H-5.4v2.52h3.88V-2.52H-5.4V0H5.4V-2.52H1.48V-26.28H5.4Zm25.4,0h-3V0H43.28V-2.52H30.8Zm33.6,0h-3V0H76.88V-2.52H64.4Z" transform="translate(75.84 29.36)" fill="#2d334a"/>
</svg>
