<svg xmlns="http://www.w3.org/2000/svg" width="152.48" height="29.92" viewBox="0 0 152.48 29.92">
  <path id="パス_12" data-name="パス 12" d="M-67.32-20.76-71.88-6.32h-.08L-73.48-28.8h-3.24L-74.32.28H-71l3.68-12.48L-63.68.28h3.44l2.2-29.08h-3.24L-62.72-6.32h-.08Zm24.88,6.36c0,4.08-.04,14.96,8.84,14.96,9.12,0,8.84-11.12,8.84-14.96,0-5.36-.44-14.96-8.84-14.96C-38.44-29.36-42.44-26.44-42.44-14.4ZM-33.6-1.96c-6,0-5.84-9.16-5.84-12.44,0-1.68-.56-12.44,5.84-12.44,6.24,0,5.84,9.8,5.84,12.44C-27.76-3.96-30.6-1.96-33.6-1.96ZM-6.76,0h3V-11.92c1.44-.04,2.88-.04,4.32-.08l7,12H11.2L3.44-12.68c4-2.28,5.12-5,5.12-7.96,0-1.68-.64-8.16-7.84-8.16H-6.76Zm3-14.48v-11.8H-.8c4.76,0,6.36,1.64,6.36,5.48,0,4.24-2.4,6.32-6.48,6.32ZM29.76-28.8h-3V0h3V-13.56H30L41,0h4L32.56-14.52c1.84-1.16,3.8-2.76,7.6-9.12l2.36-3.96-2.96-1.56c-2.8,7.8-7.72,12.8-9.8,13.04Zm45.52,3.04a12.041,12.041,0,0,0-7.92-3.6c-4.32,0-7.76,2.6-7.76,7.12,0,3.6,2.48,5.56,5.32,7.24l2.6,1.56c5.08,3.04,5.24,3.84,5.24,6.16a5.329,5.329,0,0,1-5.48,5.32,7.737,7.737,0,0,1-6.4-4L58.56-4.12c2.24,2.88,5,4.68,8.72,4.68,5.04,0,8.48-3.08,8.48-8.24,0-3.36-1.44-4.88-6.72-8.12l-2.28-1.4c-3.88-2.36-4.16-3.72-4.16-5.24a4.4,4.4,0,0,1,4.64-4.4c2.48,0,4.48,1.68,6.24,3.24Z" transform="translate(76.72 29.36)" fill="#2d334a"/>
</svg>
