<svg xmlns="http://www.w3.org/2000/svg" width="400.059" height="37.188" viewBox="0 0 400.059 37.188">
  <path id="パス_2" data-name="パス 2" d="M28.613-24.629V-6q2.031.41,2.031,2.93Q30.645,0,27.578,0T24.512-3.066q0-3.066,3.066-3.066V-14.3H3.281v8.164Q6.133-6,6.133-3.066,6.133,0,3.066,0T0-3.066Q0-5.684,2.246-6.035V-24.551Q0-24.98,0-27.578q0-3.066,3.066-3.066t3.066,3.066q0,2.949-2.852,3.066v9.2h24.3v-9.2q-3.066,0-3.066-3.066t3.066-3.066q3.066,0,3.066,3.066Q30.645-25.059,28.613-24.629ZM3.281-5.1a2.93,2.93,0,0,0-1.523.605,1.761,1.761,0,0,0-.742,1.426A1.961,1.961,0,0,0,1.65-1.65a1.961,1.961,0,0,0,1.416.635A1.929,1.929,0,0,0,4.473-1.65,1.975,1.975,0,0,0,5.1-3.066a1.89,1.89,0,0,0-.557-1.318A2.2,2.2,0,0,0,3.281-5.1Zm24.512,0a2.359,2.359,0,0,0-1.562.6,1.82,1.82,0,0,0-.7,1.436,1.961,1.961,0,0,0,.635,1.416,1.961,1.961,0,0,0,1.416.635,1.973,1.973,0,0,0,1.406-.635,1.947,1.947,0,0,0,.645-1.416,1.89,1.89,0,0,0-.557-1.318A2.21,2.21,0,0,0,27.793-5.1Zm-24.8-20.43a2.071,2.071,0,0,0,1.475-.605A1.929,1.929,0,0,0,5.1-27.578a1.987,1.987,0,0,0-.625-1.406,1.916,1.916,0,0,0-1.406-.645,1.947,1.947,0,0,0-1.416.645,1.973,1.973,0,0,0-.635,1.406Q1.016-25.781,2.988-25.527Zm24.8,0a2.318,2.318,0,0,0,1.279-.732,1.89,1.89,0,0,0,.557-1.318,1.96,1.96,0,0,0-.645-1.406,1.96,1.96,0,0,0-1.406-.645,1.947,1.947,0,0,0-1.416.645,1.973,1.973,0,0,0-.635,1.406,1.842,1.842,0,0,0,.732,1.426A2.337,2.337,0,0,0,27.793-25.527Zm36.746,3.477a1.549,1.549,0,0,0,.508,1.113,1.549,1.549,0,0,0,1.113.508,1.583,1.583,0,0,0,1.133-.5,1.537,1.537,0,0,0,.508-1.123,1.569,1.569,0,0,0-.508-1.133,1.569,1.569,0,0,0-1.133-.508,1.537,1.537,0,0,0-1.123.508A1.583,1.583,0,0,0,64.539-22.051Zm0,19.59a1.583,1.583,0,0,0,.5,1.133A1.537,1.537,0,0,0,66.16-.82a1.569,1.569,0,0,0,1.133-.508A1.569,1.569,0,0,0,67.8-2.461a1.537,1.537,0,0,0-.508-1.123,1.583,1.583,0,0,0-1.133-.5,1.5,1.5,0,0,0-1.045.449,1.8,1.8,0,0,0-.576,1.016Zm0-9.8a1.581,1.581,0,0,0,.508,1.123,1.536,1.536,0,0,0,1.113.518,1.569,1.569,0,0,0,1.133-.508,1.569,1.569,0,0,0,.508-1.133,1.549,1.549,0,0,0-.508-1.113,1.569,1.569,0,0,0-1.133-.508,1.5,1.5,0,0,0-1.045.449,1.8,1.8,0,0,0-.576,1.016Zm-19.609,0v8.984H63.816Q64.148-4.9,66.16-4.9a2.167,2.167,0,0,1,2.461,2.441A2.175,2.175,0,0,1,66.16,0a2.167,2.167,0,0,1-2.441-2.461H44.109v-20.9H63.953a2.2,2.2,0,0,1,2.207-1.152,2.175,2.175,0,0,1,2.461,2.461,2.167,2.167,0,0,1-2.461,2.441,2.158,2.158,0,0,1-2.441-2.441,2.5,2.5,0,0,1,.039-.508H44.93v9.492H63.816q.332-1.641,2.344-1.641a2.167,2.167,0,0,1,2.461,2.441A2.175,2.175,0,0,1,66.16-9.8a2.167,2.167,0,0,1-2.441-2.461ZM84.156-20.43a1.549,1.549,0,0,0,1.113-.508,1.549,1.549,0,0,0,.508-1.113,1.583,1.583,0,0,0-.5-1.133,1.537,1.537,0,0,0-1.123-.508,1.569,1.569,0,0,0-1.133.508,1.569,1.569,0,0,0-.508,1.133,1.537,1.537,0,0,0,.508,1.123A1.583,1.583,0,0,0,84.156-20.43ZM103.727-.742a1.494,1.494,0,0,0,1.66-1.719,1.537,1.537,0,0,0-.508-1.123,1.583,1.583,0,0,0-1.133-.5,1.549,1.549,0,0,0-1.113.508,1.549,1.549,0,0,0-.508,1.113A1.678,1.678,0,0,0,103.727-.742Zm-2.285-.879a3.191,3.191,0,0,1-.137-.84A2.158,2.158,0,0,1,103.746-4.9a2.167,2.167,0,0,1,2.461,2.441A2.141,2.141,0,0,1,103.824,0h-.078a2.266,2.266,0,0,1-1.621-.664H82.848v-19.18a1.722,1.722,0,0,0-.527-.957,2.015,2.015,0,0,1-.625-1.25,2.175,2.175,0,0,1,2.461-2.461A2.167,2.167,0,0,1,86.6-22.051a2.158,2.158,0,0,1-2.441,2.441L84-19.668a1.354,1.354,0,0,0-.273-.039q-.059.02-.059.059V-1.621ZM120.1-20.43a1.549,1.549,0,0,0,1.113-.508,1.549,1.549,0,0,0,.508-1.113,1.583,1.583,0,0,0-.5-1.133,1.537,1.537,0,0,0-1.123-.508,1.569,1.569,0,0,0-1.133.508,1.569,1.569,0,0,0-.508,1.133,1.537,1.537,0,0,0,.508,1.123A1.583,1.583,0,0,0,120.1-20.43ZM139.672-.742a1.494,1.494,0,0,0,1.66-1.719,1.537,1.537,0,0,0-.508-1.123,1.583,1.583,0,0,0-1.133-.5,1.549,1.549,0,0,0-1.113.508,1.549,1.549,0,0,0-.508,1.113A1.678,1.678,0,0,0,139.672-.742Zm-2.285-.879a3.192,3.192,0,0,1-.137-.84A2.158,2.158,0,0,1,139.691-4.9a2.167,2.167,0,0,1,2.461,2.441A2.141,2.141,0,0,1,139.77,0h-.078a2.266,2.266,0,0,1-1.621-.664H118.793v-19.18a1.722,1.722,0,0,0-.527-.957,2.015,2.015,0,0,1-.625-1.25,2.175,2.175,0,0,1,2.461-2.461,2.167,2.167,0,0,1,2.441,2.461,2.158,2.158,0,0,1-2.441,2.441l-.156-.059a1.354,1.354,0,0,0-.273-.039q-.059.02-.059.059V-1.621Zm28.465-22.891a15.493,15.493,0,0,1,4.18.82,10.973,10.973,0,0,1,6.875,5.82,12.533,12.533,0,0,1,1.211,5.605,14.5,14.5,0,0,1-.781,4.512,10.512,10.512,0,0,1-4.355,5.879A12.893,12.893,0,0,1,165.852,0,12.684,12.684,0,0,1,159.7-1.484a11.039,11.039,0,0,1-4.492-4.453,12.706,12.706,0,0,1-1.543-6.25v-.078a11.983,11.983,0,0,1,3.652-8.984,11.989,11.989,0,0,1,3.965-2.461,11.555,11.555,0,0,1,4.2-.8Zm.156,1.25a12.724,12.724,0,0,0-8.047,3.184,9.58,9.58,0,0,0-3.125,7.422v.488a12.186,12.186,0,0,0,1.582,5.586,10.95,10.95,0,0,0,4,4.18,9.941,9.941,0,0,0,5.137,1.484h.391a11.144,11.144,0,0,0,5.625-1.66q4.609-2.852,5.1-9.844Q175.812-22.5,166.008-23.262ZM165.852-9.8a2.175,2.175,0,0,1-2.461-2.461,2.167,2.167,0,0,1,2.461-2.441,2.167,2.167,0,0,1,2.461,2.441Q168.313-10.176,165.852-9.8Zm0-.82a1.549,1.549,0,0,0,1.1-.518,1.568,1.568,0,0,0,.518-1.123,1.549,1.549,0,0,0-.508-1.113,1.549,1.549,0,0,0-1.113-.508,1.549,1.549,0,0,0-1.113.508,1.549,1.549,0,0,0-.508,1.113,1.581,1.581,0,0,0,.508,1.123A1.536,1.536,0,0,0,165.852-10.625Zm57.281-14.9a1.928,1.928,0,0,0,1.4-.645,1.973,1.973,0,0,0,.635-1.406,1.987,1.987,0,0,0-.625-1.406,1.916,1.916,0,0,0-1.406-.645,1.947,1.947,0,0,0-1.416.645,1.973,1.973,0,0,0-.635,1.406,1.961,1.961,0,0,0,.635,1.416A1.961,1.961,0,0,0,223.133-25.527Zm24.512,0a1.973,1.973,0,0,0,1.406-.635,1.947,1.947,0,0,0,.645-1.416,1.96,1.96,0,0,0-.645-1.406,1.96,1.96,0,0,0-1.406-.645,1.947,1.947,0,0,0-1.416.645,1.973,1.973,0,0,0-.635,1.406,1.871,1.871,0,0,0,.576,1.309,2.384,2.384,0,0,0,1.26.742Zm-12.266,0a1.96,1.96,0,0,0,1.406-.645,1.96,1.96,0,0,0,.645-1.406,1.973,1.973,0,0,0-.635-1.406,1.947,1.947,0,0,0-1.416-.645,1.928,1.928,0,0,0-1.4.645,1.973,1.973,0,0,0-.635,1.406,1.871,1.871,0,0,0,.576,1.309,2.384,2.384,0,0,0,1.26.742Zm0,24.512h11.25V-24.629q-2.051-.43-2.051-2.949,0-3.066,3.066-3.066t3.066,3.066q0,3.066-3.066,3.066V0H221.512V-24.8a2.755,2.755,0,0,1-1.445-2.773q0-3.066,3.066-3.066t3.066,3.066q0,3.066-3.066,3.066a3.386,3.386,0,0,1-.605-.039V-1.016h11.836V-24.629q-2.051-.43-2.051-2.949,0-3.066,3.066-3.066,3.086,0,3.086,3.066t-3.086,3.066Zm40.242-23.5a15.494,15.494,0,0,1,4.18.82,10.973,10.973,0,0,1,6.875,5.82,12.533,12.533,0,0,1,1.211,5.605,14.5,14.5,0,0,1-.781,4.512,10.512,10.512,0,0,1-4.355,5.879A12.892,12.892,0,0,1,275.621,0a12.684,12.684,0,0,1-6.152-1.484,11.039,11.039,0,0,1-4.492-4.453,12.706,12.706,0,0,1-1.543-6.25v-.078a11.983,11.983,0,0,1,3.652-8.984,11.989,11.989,0,0,1,3.965-2.461,11.555,11.555,0,0,1,4.2-.8Zm.156,1.25a12.724,12.724,0,0,0-8.047,3.184,9.58,9.58,0,0,0-3.125,7.422v.488a12.186,12.186,0,0,0,1.582,5.586,10.95,10.95,0,0,0,4,4.18,9.941,9.941,0,0,0,5.137,1.484h.391a11.144,11.144,0,0,0,5.625-1.66q4.609-2.852,5.1-9.844Q285.582-22.5,275.777-23.262ZM275.621-9.8a2.175,2.175,0,0,1-2.461-2.461,2.167,2.167,0,0,1,2.461-2.441,2.167,2.167,0,0,1,2.461,2.441Q278.082-10.176,275.621-9.8Zm0-.82a1.549,1.549,0,0,0,1.1-.518,1.568,1.568,0,0,0,.518-1.123,1.549,1.549,0,0,0-.508-1.113,1.549,1.549,0,0,0-1.113-.508,1.549,1.549,0,0,0-1.113.508A1.549,1.549,0,0,0,274-12.266a1.581,1.581,0,0,0,.508,1.123A1.536,1.536,0,0,0,275.621-10.625ZM304.3,5.723a1.537,1.537,0,0,0,1.1-.527,1.581,1.581,0,0,0,.518-1.113,1.549,1.549,0,0,0-.508-1.113,1.549,1.549,0,0,0-1.113-.508,1.583,1.583,0,0,0-1.133.5,1.537,1.537,0,0,0-.508,1.123,1.569,1.569,0,0,0,.508,1.133A1.569,1.569,0,0,0,304.3,5.723ZM323.891-.82a1.569,1.569,0,0,0,1.133-.508,1.569,1.569,0,0,0,.508-1.133,1.537,1.537,0,0,0-.508-1.123,1.583,1.583,0,0,0-1.133-.5,1.549,1.549,0,0,0-1.113.508,1.549,1.549,0,0,0-.508,1.113,1.583,1.583,0,0,0,.5,1.133A1.537,1.537,0,0,0,323.891-.82ZM322.27-4.492a2.906,2.906,0,0,1,1.621-.41,2.167,2.167,0,0,1,2.461,2.441q0,2.148-2.461,2.461a2.167,2.167,0,0,1-2.441-2.461,2.872,2.872,0,0,1,.293-1.367L314.105-11.6h-9.492l.039,13.223a2.155,2.155,0,0,1,2.09,2.461q0,2.07-2.441,2.461a2.175,2.175,0,0,1-2.461-2.461q0-2.168,1.895-2.422V-2.949q0-4.355.078-9.473h10.293q8.2,0,10.391-1.5a2.783,2.783,0,0,0,1.23-2.422q0-.352-.02-.645-.371-3.535-3.066-4.375a12.178,12.178,0,0,0-2.793-.508q-3.516-.176-5.742-.176h-7.363a2.158,2.158,0,0,1-2.441,2.441,2.167,2.167,0,0,1-2.461-2.441,2.175,2.175,0,0,1,2.461-2.461q2.012,0,2.344,1.621h7.461a52.139,52.139,0,0,1,5.723.215q3.789.469,5.215,1.953a5.341,5.341,0,0,1,1.309,3.73v.293a4.882,4.882,0,0,1-.449,2.168q-.918,1.914-5.039,2.52a52.127,52.127,0,0,1-5.762.41ZM305.922-22.227a1.762,1.762,0,0,0-.576-1.025,1.516,1.516,0,0,0-1.045-.439,1.569,1.569,0,0,0-1.133.508,1.569,1.569,0,0,0-.508,1.133,1.537,1.537,0,0,0,.508,1.123,1.583,1.583,0,0,0,1.133.5Q305.922-20.43,305.922-22.227Zm36.141,1.8a1.549,1.549,0,0,0,1.113-.508,1.549,1.549,0,0,0,.508-1.113,1.583,1.583,0,0,0-.5-1.133,1.537,1.537,0,0,0-1.123-.508,1.569,1.569,0,0,0-1.133.508,1.569,1.569,0,0,0-.508,1.133,1.537,1.537,0,0,0,.508,1.123A1.583,1.583,0,0,0,342.063-20.43ZM361.633-.742a1.494,1.494,0,0,0,1.66-1.719,1.537,1.537,0,0,0-.508-1.123,1.583,1.583,0,0,0-1.133-.5,1.549,1.549,0,0,0-1.113.508,1.549,1.549,0,0,0-.508,1.113A1.678,1.678,0,0,0,361.633-.742Zm-2.285-.879a3.191,3.191,0,0,1-.137-.84A2.158,2.158,0,0,1,361.652-4.9a2.167,2.167,0,0,1,2.461,2.441A2.141,2.141,0,0,1,361.73,0h-.078a2.266,2.266,0,0,1-1.621-.664H340.754v-19.18a1.722,1.722,0,0,0-.527-.957,2.015,2.015,0,0,1-.625-1.25,2.175,2.175,0,0,1,2.461-2.461,2.167,2.167,0,0,1,2.441,2.461,2.158,2.158,0,0,1-2.441,2.441l-.156-.059a1.354,1.354,0,0,0-.273-.039q-.059.02-.059.059V-1.621Zm28.465-20.43h-7.363a2.158,2.158,0,0,1-2.441,2.441,2.167,2.167,0,0,1-2.461-2.441,2.175,2.175,0,0,1,2.461-2.461q2.012,0,2.344,1.621h7.461a14.1,14.1,0,0,1,7.773,1.953,9.667,9.667,0,0,1,4.473,8.672q0,5.449-3.516,8.105Q393.418-1.8,387.813-1.8h-7.4a2.121,2.121,0,0,1-2.4,1.8,2.175,2.175,0,0,1-2.461-2.461A2.167,2.167,0,0,1,378.008-4.9a2.146,2.146,0,0,1,2.441,2.285h7.363a6.727,6.727,0,0,1,.742.039q6.328,0,9.375-4.512a9.029,9.029,0,0,0,1.484-5.2,8.692,8.692,0,0,0-3.574-7.363A13,13,0,0,0,387.813-22.051Zm0,12.246a2.175,2.175,0,0,1-2.461-2.461,2.167,2.167,0,0,1,2.461-2.441,2.158,2.158,0,0,1,2.441,2.441Q390.254-10.176,387.813-9.8Zm0-.82a1.549,1.549,0,0,0,1.1-.518,1.568,1.568,0,0,0,.518-1.123,1.549,1.549,0,0,0-.508-1.113,1.549,1.549,0,0,0-1.113-.508,1.581,1.581,0,0,0-1.123.508,1.536,1.536,0,0,0-.518,1.113,1.568,1.568,0,0,0,.518,1.123A1.568,1.568,0,0,0,387.813-10.625Zm-8.184,8.34a1.794,1.794,0,0,0-.879-1.6,1.436,1.436,0,0,0-.742-.2,1.583,1.583,0,0,0-1.133.5,1.537,1.537,0,0,0-.508,1.123,1.569,1.569,0,0,0,.508,1.133,1.569,1.569,0,0,0,1.133.508,1.512,1.512,0,0,0,1.035-.449A1.779,1.779,0,0,0,379.629-2.285Zm0-19.941a1.762,1.762,0,0,0-.576-1.025,1.516,1.516,0,0,0-1.045-.439,1.569,1.569,0,0,0-1.133.508,1.569,1.569,0,0,0-.508,1.133,1.537,1.537,0,0,0,.508,1.123,1.583,1.583,0,0,0,1.133.5,1.461,1.461,0,0,0,1.152-.547A1.866,1.866,0,0,0,379.629-22.227Z" transform="translate(0 30.645)" fill="#fff"/>
</svg>
